<?xml version="1.0" encoding="utf-8"?>
<!-- Generator: Adobe Illustrator 25.0.0, SVG Export Plug-In . SVG Version: 6.00 Build 0)  -->
<svg version="1.1" id="Layer_1" xmlns="http://www.w3.org/2000/svg" xmlns:xlink="http://www.w3.org/1999/xlink" x="0px" y="0px"
	 viewBox="0 0 246 30" style="enable-background:new 0 0 246 30;" xml:space="preserve">
<style type="text/css">
	.st0{fill:#414244;}
	.st1{fill:url(#SVGID_1_);}
</style>
<path class="st0" d="M46,5.3h4.6v17.3H46V5.3z M53,16.1c0-4.2,3.2-6.7,7.4-6.7c4.2,0,7.4,2.5,7.4,6.7c0,4.2-3.2,6.7-7.4,6.7
	C56.1,22.9,53,20.4,53,16.1z M63.2,16.1c0-2-0.9-3.7-2.8-3.7s-2.8,1.7-2.8,3.7c0,1.9,0.9,3.7,2.8,3.7S63.2,18,63.2,16.1z M71.3,8.7
	h-4.2V5.3H80v3.5h-4.2v13.8h-4.6L71.3,8.7L71.3,8.7z M89.6,8.7h-4.2V5.3h12.9v3.5h-4.2v13.8h-4.6V8.7z M102.1,17.4
	c0.2,1.8,1.6,2.5,3.7,2.5c1.2,0,2.5-0.3,3.9-1v3.2c-1.5,0.6-3,0.8-4.7,0.8c-4.2,0-7.4-2.5-7.4-6.7c0-4.2,2.8-6.7,6.8-6.7
	c4.7,0,6.4,3.4,6.4,7.2v0.8H102.1z M106.9,14.9c0-1.5-0.7-2.7-2.4-2.7c-1.6,0-2.3,1.2-2.4,2.7H106.9z M122.9,13.4
	c-0.8-0.5-1.7-0.7-2.6-0.7c-1.9,0-3.4,1.4-3.4,3.6c0,2.1,1.7,3.4,3.6,3.4c1,0,2-0.2,2.7-0.6l0.1,3.4c-1.1,0.4-2.4,0.6-3.6,0.6
	c-4.2,0-7.4-2.5-7.4-6.7s3.2-6.7,7.4-6.7c1.4,0,2.5,0.2,3.5,0.7L122.9,13.4z M125.3,4h4.4v7.6h0.1c1-1.4,2.3-2.2,4.3-2.2
	c3.5,0,4.9,2.5,4.9,5.1v8h-4.4v-6.2c0-2.5-0.9-3.3-2-3.3c-1.8,0-2.7,1.3-2.7,4v5.4h-4.4L125.3,4L125.3,4z M141.5,9.6h4V12
	c0.9-1.9,2.6-2.7,4.7-2.7c3.5,0,4.9,2.5,4.9,5.1v8h-4.4v-6.2c0-2.5-0.9-3.3-2-3.3c-1.8,0-2.7,1.3-2.7,4v5.4h-4.4V9.6z M157,16.1
	c0-4.2,3.2-6.7,7.4-6.7c4.2,0,7.4,2.5,7.4,6.7c0,4.2-3.2,6.7-7.4,6.7C160.2,22.9,157,20.4,157,16.1z M167.2,16.1
	c0-2-0.9-3.7-2.8-3.7c-1.9,0-2.8,1.7-2.8,3.7c0,1.9,0.9,3.7,2.8,3.7C166.3,19.8,167.2,18,167.2,16.1z M174.1,4h4.4v18.6h-4.4V4z
	 M180.8,16.1c0-4.2,3.2-6.7,7.4-6.7s7.4,2.5,7.4,6.7c0,4.2-3.2,6.7-7.4,6.7C183.9,22.9,180.8,20.4,180.8,16.1z M191,16.1
	c0-2-0.9-3.7-2.8-3.7s-2.8,1.7-2.8,3.7c0,1.9,0.9,3.7,2.8,3.7S191,18,191,16.1z M211,21c0,5.3-2.5,7-7.7,7c-2.1,0-3.8-0.5-4.9-0.8
	l0.2-3.6c1.4,0.7,2.4,1.1,4.3,1.1c2.5,0,3.9-1.2,3.9-3.8v-0.7c-1.1,1.5-2.5,2.2-4.3,2.2c-3.5,0-5.6-2.7-5.6-6.5
	c0-3.9,1.7-6.7,5.7-6.7c1.8,0,3.4,1.1,4.3,2.7V9.6h4L211,21L211,21z M204,19.1c1.6,0,2.8-1.4,2.8-3.4c0-1.5-0.9-3.1-2.8-3.1
	c-1.6,0-2.5,1.5-2.5,3.3C201.5,18,202.6,19.1,204,19.1z M218.3,7.6H214V4.3h4.4V7.6z M214,9.6h4.4v12.8H214V9.6z M225.1,17.4
	c0.2,1.8,1.6,2.5,3.7,2.5c1.2,0,2.5-0.3,3.9-1v3.2c-1.5,0.6-3,0.8-4.7,0.8c-4.2,0-7.4-2.5-7.4-6.7c0-4.2,2.8-6.7,6.8-6.7
	c4.7,0,6.4,3.4,6.4,7.2v0.8H225.1z M229.9,14.9c0-1.5-0.7-2.7-2.4-2.7c-1.6,0-2.3,1.2-2.4,2.7H229.9z M235.7,19
	c1.1,0.5,2.5,0.9,4.1,0.9c0.9,0,1.7-0.1,1.7-1.1c0-2.2-6.2-0.7-6.2-5.3c0-3,2.9-4.1,5.4-4.1c1.6,0,3,0.2,4.5,0.8l-0.3,3.1
	c-1-0.6-2.3-0.9-3.4-0.9c-1,0-2,0.2-2,0.9c0,2,6.5,0.4,6.5,5.3c0,3.5-3,4.3-5.9,4.3c-1.9,0-3.3-0.2-4.6-0.6L235.7,19z"/>
<radialGradient id="SVGID_1_" cx="-181.6983" cy="437.4214" r="1" gradientTransform="matrix(-28.5714 -30 -30 114.286 7961.2695 -55412.0977)" gradientUnits="userSpaceOnUse">
	<stop  offset="0" style="stop-color:#F9ED32"/>
	<stop  offset="0.7366" style="stop-color:#226CBD"/>
	<stop  offset="1" style="stop-color:#1E4978"/>
</radialGradient>
<path class="st1" d="M14.4,30c0.1,0,0.1-0.1,0-0.1c-1.5-0.4-2.7-1.8-2.7-3.5c0-2,1.7-3.6,3.6-3.6h11.6c0.6,0,1.2-0.3,1.5-0.9
	c0.5-1.1-0.3-2.3-1.5-2.3H15.4c-2.9,0-5.3,2.4-5.3,5.3c0,2.1,1.2,3.9,3,4.8c-3.3-1.2-5.7-4.3-5.7-7.9c0-4.7,3.8-8.5,8.6-8.5h11.9
	c1.1,0,2-1,1.7-2.1c-0.2-0.8-0.9-1.3-1.7-1.3H15.8C10.1,9.9,5.7,14.4,5.7,20c0,4.5,3,8.4,7.1,9.7c-5.7-1.5-10-6.8-10-13
	c0-7.4,6-13.4,13.5-13.4c2.7,0,3.4-2.7,0.7-3.1C16.3,0.1,15.7,0,15.1,0C6.7,0,0,6.7,0,15C0,23,6.4,29.6,14.4,30z"/>
</svg>
